<mxfile host="app.diagrams.net" modified="2021-06-29T10:32:13.976Z" agent="5.0 (X11)" etag="XPr4f0di0GzzyhGi8sBB" version="14.8.0" type="github">
  <diagram id="fnnWd-GXTel-adMzku-n" name="Page-1">
    <mxGraphModel dx="2249" dy="1936" grid="1" gridSize="10" guides="1" tooltips="1" connect="1" arrows="1" fold="1" page="1" pageScale="1" pageWidth="827" pageHeight="1169" math="0" shadow="0">
      <root>
        <mxCell id="0" />
        <mxCell id="1" parent="0" />
        <mxCell id="hL15t2aD9eFM9nj67Adg-2" value="" style="rounded=0;whiteSpace=wrap;html=1;" parent="1" vertex="1">
          <mxGeometry x="30" y="80" width="10" height="150" as="geometry" />
        </mxCell>
        <mxCell id="hL15t2aD9eFM9nj67Adg-5" value="" style="endArrow=none;dashed=1;html=1;dashPattern=1 3;strokeWidth=2;startArrow=none;" parent="1" source="hL15t2aD9eFM9nj67Adg-9" target="hL15t2aD9eFM9nj67Adg-8" edge="1">
          <mxGeometry width="50" height="50" relative="1" as="geometry">
            <mxPoint x="40" y="160" as="sourcePoint" />
            <mxPoint x="1160" y="160" as="targetPoint" />
          </mxGeometry>
        </mxCell>
        <mxCell id="hL15t2aD9eFM9nj67Adg-6" value="" style="endArrow=none;html=1;exitX=1;exitY=0.75;exitDx=0;exitDy=0;entryX=1;entryY=0.25;entryDx=0;entryDy=0;" parent="1" edge="1">
          <mxGeometry width="50" height="50" relative="1" as="geometry">
            <mxPoint x="160" y="175" as="sourcePoint" />
            <mxPoint x="160" y="145" as="targetPoint" />
          </mxGeometry>
        </mxCell>
        <mxCell id="hL15t2aD9eFM9nj67Adg-8" value="" style="ellipse;whiteSpace=wrap;html=1;aspect=fixed;" parent="1" vertex="1">
          <mxGeometry x="1160" y="155" width="10" height="10" as="geometry" />
        </mxCell>
        <mxCell id="hL15t2aD9eFM9nj67Adg-9" value="" style="rounded=0;whiteSpace=wrap;html=1;" parent="1" vertex="1">
          <mxGeometry x="150" y="125" width="20" height="70" as="geometry" />
        </mxCell>
        <mxCell id="hL15t2aD9eFM9nj67Adg-10" value="" style="endArrow=none;dashed=1;html=1;dashPattern=1 3;strokeWidth=2;" parent="1" target="hL15t2aD9eFM9nj67Adg-9" edge="1">
          <mxGeometry width="50" height="50" relative="1" as="geometry">
            <mxPoint x="40" y="160" as="sourcePoint" />
            <mxPoint x="1160" y="160" as="targetPoint" />
          </mxGeometry>
        </mxCell>
        <mxCell id="hL15t2aD9eFM9nj67Adg-11" value="" style="ellipse;whiteSpace=wrap;html=1;aspect=fixed;" parent="1" vertex="1">
          <mxGeometry x="155" y="130" width="10" height="10" as="geometry" />
        </mxCell>
        <mxCell id="hL15t2aD9eFM9nj67Adg-12" value="" style="ellipse;whiteSpace=wrap;html=1;aspect=fixed;" parent="1" vertex="1">
          <mxGeometry x="155" y="155" width="10" height="10" as="geometry" />
        </mxCell>
        <mxCell id="hL15t2aD9eFM9nj67Adg-13" value="" style="ellipse;whiteSpace=wrap;html=1;aspect=fixed;" parent="1" vertex="1">
          <mxGeometry x="155" y="180" width="10" height="10" as="geometry" />
        </mxCell>
        <mxCell id="hL15t2aD9eFM9nj67Adg-17" value="" style="endArrow=classic;startArrow=none;html=1;" parent="1" source="hL15t2aD9eFM9nj67Adg-26" edge="1">
          <mxGeometry width="50" height="50" relative="1" as="geometry">
            <mxPoint x="40" y="240" as="sourcePoint" />
            <mxPoint x="1160" y="240" as="targetPoint" />
          </mxGeometry>
        </mxCell>
        <mxCell id="hL15t2aD9eFM9nj67Adg-19" value="" style="endArrow=classic;startArrow=none;html=1;" parent="1" source="hL15t2aD9eFM9nj67Adg-24" edge="1">
          <mxGeometry width="50" height="50" relative="1" as="geometry">
            <mxPoint x="160" y="210" as="sourcePoint" />
            <mxPoint x="1160" y="210" as="targetPoint" />
          </mxGeometry>
        </mxCell>
        <mxCell id="hL15t2aD9eFM9nj67Adg-21" value="&lt;div style=&quot;font-size: 20px;&quot;&gt;Detector:&lt;/div&gt;&lt;div style=&quot;font-size: 20px;&quot;&gt;- position: 0, 0, -125 mm&lt;br style=&quot;font-size: 20px;&quot;&gt;&lt;/div&gt;&lt;div style=&quot;font-size: 20px;&quot;&gt;-size: 150x150 mm&lt;/div&gt;&lt;div style=&quot;font-size: 20px;&quot;&gt;- resolution: 512x512 pixels&lt;br style=&quot;font-size: 20px;&quot;&gt;&lt;/div&gt;" style="text;html=1;strokeColor=none;fillColor=none;align=center;verticalAlign=middle;whiteSpace=wrap;rounded=0;fontSize=20;" parent="1" vertex="1">
          <mxGeometry x="-160" y="10" width="280" height="20" as="geometry" />
        </mxCell>
        <mxCell id="hL15t2aD9eFM9nj67Adg-22" value="&lt;div style=&quot;font-size: 20px;&quot;&gt;Sample:&lt;/div&gt;&lt;div style=&quot;font-size: 20px;&quot;&gt;- position: 0, 0, 0&lt;/div&gt;&lt;div style=&quot;font-size: 20px;&quot;&gt;- bounding box: 70x70x15 mm&lt;br style=&quot;font-size: 20px;&quot;&gt;&lt;/div&gt;" style="text;html=1;strokeColor=none;fillColor=none;align=center;verticalAlign=middle;whiteSpace=wrap;rounded=0;fontSize=20;" parent="1" vertex="1">
          <mxGeometry x="40" y="70" width="325" height="20" as="geometry" />
        </mxCell>
        <mxCell id="hL15t2aD9eFM9nj67Adg-23" value="&lt;div style=&quot;font-size: 20px;&quot;&gt;Source:&lt;/div&gt;&lt;div style=&quot;font-size: 20px;&quot;&gt;- position: 0, 0, 1000 mm&lt;/div&gt;&lt;div style=&quot;font-size: 20px;&quot;&gt;- filter material: Aluminium&lt;/div&gt;&lt;div style=&quot;font-size: 20px;&quot;&gt;-filter thickness: 3.2 mm&lt;br style=&quot;font-size: 20px;&quot;&gt;&lt;/div&gt;" style="text;html=1;strokeColor=none;fillColor=none;align=center;verticalAlign=middle;whiteSpace=wrap;rounded=0;fontSize=20;" parent="1" vertex="1">
          <mxGeometry x="1045" y="90" width="240" height="20" as="geometry" />
        </mxCell>
        <mxCell id="hL15t2aD9eFM9nj67Adg-24" value="source-to-object distance: 1000 mm" style="text;html=1;strokeColor=none;fillColor=none;align=center;verticalAlign=middle;whiteSpace=wrap;rounded=0;fontSize=20;" parent="1" vertex="1">
          <mxGeometry x="600" y="200" width="190" height="20" as="geometry" />
        </mxCell>
        <mxCell id="hL15t2aD9eFM9nj67Adg-25" value="" style="endArrow=none;startArrow=classic;html=1;" parent="1" target="hL15t2aD9eFM9nj67Adg-24" edge="1">
          <mxGeometry width="50" height="50" relative="1" as="geometry">
            <mxPoint x="160" y="210" as="sourcePoint" />
            <mxPoint x="1160" y="210" as="targetPoint" />
          </mxGeometry>
        </mxCell>
        <mxCell id="hL15t2aD9eFM9nj67Adg-26" value="source-to-detector distance: 1125 mm" style="text;html=1;strokeColor=none;fillColor=none;align=center;verticalAlign=middle;whiteSpace=wrap;rounded=0;fontSize=20;" parent="1" vertex="1">
          <mxGeometry x="390" y="230" width="180" height="20" as="geometry" />
        </mxCell>
        <mxCell id="hL15t2aD9eFM9nj67Adg-27" value="" style="endArrow=none;startArrow=classic;html=1;" parent="1" target="hL15t2aD9eFM9nj67Adg-26" edge="1">
          <mxGeometry width="50" height="50" relative="1" as="geometry">
            <mxPoint x="40" y="240" as="sourcePoint" />
            <mxPoint x="1160" y="240" as="targetPoint" />
          </mxGeometry>
        </mxCell>
      </root>
    </mxGraphModel>
  </diagram>
</mxfile>
